# xmcd
#
# Track frame offsets:
# 150
# 41400
# 59681
# 78228
# 102290
# 118600
# 138938
# 158490
# 186034
# 220821
# 241598
# 259520
# 272356
# 293221
#
# Disc length: 4223 seconds
#
#
# Revision: 0
# Processed by: cddbd v1.5.2PL0 Copyright (c) Steve Scherf et al.
# Submitted via: FreeRIP 2.945 
#
DISCID=b6107d0e
DTITLE=Various Artist - History Music Blues
DYEAR=0086
DGENRE=Blues
TTITLE0=stevie ray vaughn tin pan alley
TTITLE1=john mayall - rot at home
TTITLE2=gary moore - still got the blues
TTITLE3=chris rea - and you my love
TTITLE4=eric clapton - wonderful tonight
TTITLE5=alvin lee - real life blues
TTITLE6=john lee hooker - chill out (things gonna change)
TTITLE7=pat travers - i love you more than you'll ever know
TTITLE8=peter green - fool no more
TTITLE9=robin trower - i want you to love me
TTITLE10=robert cray - nothin' but a woman
TTITLE11=peter green - bandit
TTITLE12=jeff healey band - it could all get blown away
TTITLE13=junior wells - use me
EXTD=
EXTT0=
EXTT1=
EXTT2=
EXTT3=
EXTT4=
EXTT5=
EXTT6=
EXTT7=
EXTT8=
EXTT9=
EXTT10=
EXTT11=
EXTT12=
EXTT13=
PLAYORDER=
